# xmcd
#
# Track frame offsets:
#	150
#	12525
#	25265
#	36879
#	51729
#	65636
#	81223
#	93946
#	113524
#	133207
#	150938
#
# Disc length: 2217 seconds
#
# Revision: 0
# Processed by: cddbd v1.5.2PL0 Copyright (c) Steve Scherf et al.
# Submitted via: audiograbber 1.83.01
#
DISCID=8e08a70b
DTITLE=Chip McCain - Songs I Love To Sing
DYEAR=2014
DGENRE=Country
TTITLE0=Amarillo By Morning
TTITLE1=What's Forever For
TTITLE2=Don't Let Me Be Lonely Tonight
TTITLE3=Looking For Love
TTITLE4=In This Life
TTITLE5=Lie To You For Your Love
TTITLE6=The Chair
TTITLE7=Peaceful Easy Feeling
TTITLE8=Don't Close Your Eyes
TTITLE9=Rebecca Lynn
TTITLE10=You Look So Good In Love
EXTD=
EXTT0=
EXTT1=
EXTT2=
EXTT3=
EXTT4=
EXTT5=
EXTT6=
EXTT7=
EXTT8=
EXTT9=
EXTT10=
PLAYORDER=
